<svg xmlns="http://www.w3.org/2000/svg" version="1.1" xmlns:xlink="http://www.w3.org/1999/xlink" width="512" height="512" x="0" y="0" viewBox="0 0 512.001 512.001" style="enable-background:new 0 0 512 512" xml:space="preserve" class=""><g><path d="M206.247 288.503c-26.568 0-50.831 10.371-68.941 27.264-19.849 18.515-32.307 44.865-32.307 73.984V451h284.503l22.5-45 22.5 45h22.5c24.75 0 44.999-20.25 44.999-44.999 0-24.75-20.25-44.999-44.999-44.999V129h-50v58.256c0 55.687-45.562 101.248-101.248 101.248h-99.507z" style="fill-rule:evenodd;clip-rule:evenodd;" fill="#edf869" data-original="#fff69b" opacity="1" class=""></path><path d="M452.002 129H212.499l-33.75 50-33.75-50-22.5 30-22.5-30h-40" style="fill-rule:evenodd;clip-rule:evenodd;stroke-width:20;stroke-linecap:round;stroke-linejoin:round;stroke-miterlimit:22.9256;" fill-rule="evenodd" clip-rule="evenodd" fill="none" stroke="#ffffff" stroke-width="20" stroke-linecap="round" stroke-linejoin="round" stroke-miterlimit="22.9256" data-original="#020288" opacity="1"></path><path d="M502.001 406.001c0-24.75-20.25-44.999-44.999-44.999v-300c24.75 0 44.999 20.25 44.999 44.999v300c0 24.75-20.25 44.999-44.999 44.999h-22.5l-22.5-45-22.5 45H54.999C30.25 451 10 430.75 10 406.001v-300c0-24.749 20.25-44.999 44.999-44.999v300c-24.75 0-44.999 20.25-44.999 44.999" style="fill-rule:evenodd;clip-rule:evenodd;stroke-width:20;stroke-linecap:round;stroke-linejoin:round;stroke-miterlimit:22.9256;" fill-rule="evenodd" clip-rule="evenodd" fill="none" stroke="#ffffff" stroke-width="20" stroke-linecap="round" stroke-linejoin="round" stroke-miterlimit="22.9256" data-original="#020288" opacity="1"></path><path d="m263.816 223.985 31.82-31.82M295.636 223.985l-31.82-31.82" style="fill-rule:evenodd;clip-rule:evenodd;stroke-width:20;stroke-linecap:round;stroke-linejoin:round;stroke-miterlimit:2.6131;" fill-rule="evenodd" clip-rule="evenodd" fill="none" stroke="#ffffff" stroke-width="20" stroke-linecap="round" stroke-linejoin="round" stroke-miterlimit="2.6131" data-original="#020288" opacity="1"></path><circle cx="329.816" cy="363.985" r="25" style="fill-rule:evenodd;clip-rule:evenodd;stroke-width:20;stroke-linecap:round;stroke-linejoin:round;stroke-miterlimit:2.6131;" fill-rule="evenodd" clip-rule="evenodd" fill="none" stroke="#ffffff" stroke-width="20" stroke-linecap="round" stroke-linejoin="round" stroke-miterlimit="2.6131" data-original="#020288" opacity="1"></circle><path d="M254.815 363.985h-50.999c-38.498 0-70-31.5-70-70h0c0-38.5 31.499-70 70-70" style="fill-rule:evenodd;clip-rule:evenodd;stroke-width:20;stroke-linecap:round;stroke-linejoin:round;stroke-miterlimit:2.6131;" fill-rule="evenodd" clip-rule="evenodd" fill="none" stroke="#ffffff" stroke-width="20" stroke-linecap="round" stroke-linejoin="round" stroke-miterlimit="2.6131" data-original="#020288" opacity="1"></path></g></svg>