<svg id="Layer_1" xmlns="http://www.w3.org/2000/svg" viewBox="82.71 78.5 1167.99 343.05"><defs><style>.st0{fill:#1b375c}.st1{fill:#edf869}.st2{fill:#015f6a}.st4{fill:#fff}</style></defs><path class="st4" d="M407.02 173.98v32.2h5.99v-32.2zM451.51 173.98v21.8l-17.76-21.8h-4.92v32.2h5.93v-21.81l17.76 21.81h4.92v-32.2zM469.08 173.98v5.06h10.67v27.14h5.98v-27.14h10.67v-5.06zM514.02 201.16v-8.87h15.55v-4.93h-15.55v-8.37h17.53v-5.01h-23.51v32.2h24.15v-5.02zM566.09 195.6c4.37-1.7 6.86-5.29 6.86-10.17 0-7.13-5.25-11.45-13.71-11.45h-13.25v32.2h5.98v-9.39h7.27c.41 0 .83 0 1.24-.04l6.58 9.43h6.44zm-7.13-3.73h-6.99v-12.83h6.99c5.25 0 7.96 2.34 7.96 6.39s-2.71 6.44-7.96 6.44M609.42 173.98v21.8l-17.75-21.8h-4.93v32.2h5.94v-21.81l17.76 21.81h4.92v-32.2zM646.96 173.98h-5.89l-14.49 32.2h6.16l3.18-7.45h16.1l3.22 7.45h6.26zm-9.02 20.05 6.03-14.07 6.07 14.07zM666.97 173.98v5.06h10.67v27.14h5.98v-27.14h10.67v-5.06zM705.93 173.98v32.2h5.98v-32.2zM742.78 173.52c-9.99 0-17.35 7.03-17.35 16.56s7.36 16.56 17.35 16.56 17.34-6.99 17.34-16.56-7.36-16.56-17.34-16.56m0 27.88c-6.49 0-11.32-4.74-11.32-11.32s4.83-11.32 11.32-11.32 11.31 4.74 11.31 11.32-4.83 11.32-11.31 11.32M796.27 173.98v21.8l-17.75-21.8h-4.93v32.2h5.94v-21.81l17.76 21.81h4.92v-32.2zM833.81 173.98h-5.89l-14.49 32.2h6.16l3.18-7.45h16.1l3.22 7.45h6.26zm-9.02 20.05 6.03-14.07 6.07 14.07zM865.55 201.12v-27.14h-5.98v32.2h22.82v-5.06zM917.99 182.86c0-2.44 2.02-4.38 6.99-4.38 2.81 0 5.98.83 8.88 2.53l1.89-4.64c-2.81-1.84-6.86-2.85-10.72-2.85-8.84 0-12.98 4.41-12.98 9.61 0 11.96 19.14 7.41 19.14 14.35 0 2.4-2.11 4.19-7.13 4.19-3.96 0-8.05-1.47-10.63-3.54l-2.07 4.65c2.67 2.3 7.69 3.86 12.7 3.86 8.83 0 13.02-4.42 13.02-9.57 0-11.82-19.09-7.36-19.09-14.21M965.37 201.4c-6.67 0-11.5-4.7-11.5-11.32s4.83-11.32 11.5-11.32c3.36 0 6.25 1.24 8.6 3.77l3.87-3.63c-2.99-3.5-7.5-5.38-12.75-5.38-9.89 0-17.25 6.94-17.25 16.56s7.36 16.56 17.21 16.56c5.29 0 9.8-1.89 12.79-5.38l-3.87-3.68c-2.35 2.57-5.24 3.82-8.6 3.82M1013.35 173.98v13.29h-16.66v-13.29h-5.98v32.2h5.98v-13.8h16.66v13.8h5.98v-32.2zM1050.15 173.52c-9.99 0-17.35 7.03-17.35 16.56s7.36 16.56 17.35 16.56 17.34-6.99 17.34-16.56-7.36-16.56-17.34-16.56m0 27.88c-6.49 0-11.32-4.74-11.32-11.32s4.83-11.32 11.32-11.32 11.31 4.74 11.31 11.32-4.83 11.32-11.31 11.32M1096.01 173.52c-9.99 0-17.35 7.03-17.35 16.56s7.36 16.56 17.35 16.56 17.34-6.99 17.34-16.56-7.36-16.56-17.34-16.56m0 27.88c-6.49 0-11.32-4.74-11.32-11.32s4.83-11.32 11.32-11.32 11.31 4.74 11.31 11.32-4.83 11.32-11.31 11.32M1132.8 201.12v-27.14h-5.98v32.2h22.82v-5.06zM1196.38 173.52c-9.99 0-17.35 7.03-17.35 16.56s7.36 16.56 17.35 16.56 17.34-6.99 17.34-16.56-7.36-16.56-17.34-16.56m0 27.88c-6.49 0-11.32-4.74-11.32-11.32s4.83-11.32 11.32-11.32 11.32 4.74 11.32 11.32-4.84 11.32-11.32 11.32M1250.7 178.99v-5.01h-23.5v32.2h5.98v-12.33h15.55v-5.06h-15.55v-9.8zM422.6 250.62c0-4.31 3.62-7.84 13.03-7.84 6.08 0 12.64 1.76 19.01 5.39l4.9-12.05c-6.37-4.02-15.19-6.08-23.81-6.08-19.5 0-28.91 9.7-28.91 21.36 0 25.49 39.88 16.67 39.88 29.51 0 4.21-3.82 7.35-13.23 7.35-8.23 0-16.85-2.94-22.64-7.16l-5.39 11.96c6.08 4.7 17.06 7.94 27.94 7.94 19.6 0 29.1-9.8 29.1-21.27 0-25.19-39.88-16.47-39.88-29.11M507.07 287.47c-12.84 0-21.95-9.01-21.95-21.95s9.11-21.96 21.95-21.96c6.86 0 12.64 2.75 17.25 8.04l10.19-9.41c-6.47-7.84-16.36-12.15-28.22-12.15-21.37 0-37.25 14.8-37.25 35.48S484.92 301 506.19 301c11.96 0 21.85-4.32 28.32-12.25l-10.19-9.41c-4.61 5.39-10.39 8.13-17.25 8.13M592.23 231.21v27.06h-31.16v-27.06h-15.88v68.61h15.88v-28.13h31.16v28.13h15.88v-68.61zM661.62 231.21h-15.68l-30.58 68.61h16.27l6.07-14.7h31.85l6.08 14.7h16.66zm-18.82 41.85 10.88-26.26 10.88 26.26zM751.29 243.96v-12.75h-51.85v68.61h15.88v-24.99h31.75v-12.74h-31.75v-18.13zM813.91 243.96v-12.75h-51.85v68.61h15.88v-24.99h31.75v-12.74h-31.75v-18.13zM871.73 231.21v27.06h-31.17v-27.06h-15.88v68.61h15.88v-28.13h31.17v28.13h15.87v-68.61zM941.11 231.21h-15.68l-30.58 68.61h16.27l6.08-14.7h31.85l6.07 14.7h16.67zm-18.82 41.85 10.88-26.26 10.88 26.26zM1023.33 231.21v37.84c0 13.03-5.58 18.42-15.29 18.42s-15.29-5.39-15.29-18.42v-37.84h-15.87v38.42c0 20.19 11.56 31.37 31.07 31.37s31.06-11.18 31.06-31.37v-38.42zM1066.45 250.62c0-4.31 3.63-7.84 13.03-7.84 6.08 0 12.65 1.76 19.02 5.39l4.9-12.05c-6.37-4.02-15.19-6.08-23.82-6.08-19.5 0-28.91 9.7-28.91 21.36 0 25.49 39.89 16.67 39.89 29.51 0 4.21-3.82 7.35-13.23 7.35-8.23 0-16.86-2.94-22.64-7.16l-5.39 11.96c6.07 4.7 17.05 7.94 27.93 7.94 19.6 0 29.11-9.8 29.11-21.27 0-25.19-39.89-16.47-39.89-29.11M1132.99 287.08V271.2h31.85v-12.35h-31.85v-14.89h36.07v-12.75h-51.85v68.61h53.12v-12.74zM1230.21 231.21v41.66l-34.11-41.66h-13.13v68.61h15.68v-41.65l34.2 41.65h13.04v-68.61z"/><path class="st1" d="M279.21 133.08c-1.19-.75-2.42-1.46-3.68-2.11-5.74-2.98-12.08-4.59-18.53-4.7-.25 0-.49 0-.74.02v40.06c.19 0 .6.01.6.01 8.23.1 16.83 2.73 24.13 6.98v-39.16c-.33-.22-1.44-.89-1.78-1.1m29.21-6.8c-5.99.18-11.32 1.2-17.59 4.23-1.26.61-2.65 1.31-4.05 2.26-.59.4-1.13.82-1.8 1.4v39.16c7.28-4.25 15.44-6.88 23.67-6.97h.02c.19-.01.39-.01.58-.01v-40.07zm4.85 5.93v37.77s-3.51-.07-5.23 0c-7.53.33-14.76 2.77-21.45 6.66l-3.61 2.36-4.05-2.36c-6.7-3.89-13.72-6.31-22.67-6.67-.27 0-3.99.01-3.99.01v-37.77c-.94-.01-4.19-.04-5.14 0v42.65c12.07-.39 24.11 2.92 35.85 9.88 11.84-7.03 23.46-10.27 35.4-9.89v-42.64c-.74-.03-3.74-.01-5.11 0m0 0v37.77s-3.51-.07-5.23 0c-7.53.33-14.76 2.77-21.45 6.66l-3.61 2.36-4.05-2.36c-6.7-3.89-13.72-6.31-22.67-6.67-.27 0-3.99.01-3.99.01v-37.77c-.94-.01-4.19-.04-5.14 0v42.65c12.07-.39 24.11 2.92 35.85 9.88 11.84-7.03 23.46-10.27 35.4-9.89v-42.64c-.74-.03-3.74-.01-5.11 0m-4.6 34.15c.19-.01.39-.01.58-.01v-40.07h-.83c-5.99.18-11.32 1.2-17.59 4.23-1.26.61-2.65 1.31-4.05 2.26-.59.4-1.13.82-1.8 1.4v39.16c7.28-4.25 15.44-6.88 23.67-6.97zm-27.68 6.98v-39.16c-.33-.22-1.44-.89-1.78-1.1-1.19-.75-2.42-1.46-3.68-2.11-5.74-2.98-12.08-4.59-18.53-4.7-.25 0-.49 0-.74.02v40.06c.19 0 .6.01.6.01 8.23.1 16.83 2.73 24.13 6.98m-60.77-94.46-.83-.38v132.85c44.42 0 83.47 6.94 125.98 21V97.71c-42.89 6.03-86.11-.52-125.15-18.83m103.25 98.66c0 .07 0 .14-.01.2-.11 1.4-1.33 2.45-2.73 2.34-12.25-.96-24.16 2.24-36.41 9.8-.82.5-1.85.5-2.67 0-12.11-7.47-24.52-10.77-36.87-9.8h-.2c-1.4 0-2.54-1.14-2.54-2.55v-47.67c0-1.33 1.02-2.44 2.34-2.54 1.68-.13 5.9-.23 7.89-.21v-5.22h.22l3.62-.12c.46 0 .93-.02 1.4-.02 2.28 0 4.57.17 6.83.51 4.67.81 9.19 2.33 13.52 4.56 1.68.86 3.54 1.9 5.12 2.94 1.45-1.08 2.98-2.07 4.65-2.94 4.34-2.23 8.87-3.75 13.56-4.56 2.26-.34 4.54-.51 6.82-.51.46 0 .93.01 1.39.02l3.65.11h.22v5.23c2.2-.02 6.28.08 7.85.21 1.33.1 2.35 1.21 2.35 2.54v47.67Zm-10.2-45.33v37.77s-3.51-.07-5.23 0c-7.53.33-14.76 2.77-21.45 6.66l-3.61 2.36-4.05-2.36c-6.7-3.89-13.72-6.31-22.67-6.67-.27 0-3.99.01-3.99.01v-37.77c-.94-.01-4.19-.04-5.14 0v42.65c12.07-.39 24.11 2.92 35.85 9.88 11.84-7.03 23.46-10.27 35.4-9.89v-42.64c-.74-.03-3.74-.01-5.11 0m-4.6 34.15c.19-.01.39-.01.58-.01v-40.07h-.83c-5.99.18-11.32 1.2-17.59 4.23-1.26.61-2.65 1.31-4.05 2.26-.59.4-1.13.82-1.8 1.4v39.16c7.28-4.25 15.44-6.88 23.67-6.97zm-27.68 6.98v-39.16c-.33-.22-1.44-.89-1.78-1.1-1.19-.75-2.42-1.46-3.68-2.11-5.74-2.98-12.08-4.59-18.53-4.7-.25 0-.49 0-.74.02v40.06c.19 0 .6.01.6.01 8.23.1 16.83 2.73 24.13 6.98"/><path class="st0" d="M321.12 127.33c-1.57-.13-5.65-.23-7.85-.21v-5.22h-.22l-3.65-.12c-.46 0-.93-.02-1.39-.02-2.28 0-4.56.17-6.82.51-4.69.81-9.22 2.33-13.56 4.56-1.67.87-3.2 1.86-4.65 2.94-1.58-1.04-3.44-2.08-5.12-2.94-4.33-2.23-8.85-3.75-13.52-4.56-2.26-.34-4.55-.51-6.83-.51-.47 0-.94.01-1.4.02l-3.62.11h-.22v5.23c-1.99-.02-6.21.08-7.89.21-1.32.1-2.34 1.21-2.34 2.54v47.67c0 1.41 1.14 2.55 2.54 2.55h.2c12.35-.97 24.76 2.33 36.87 9.8.82.5 1.85.5 2.67 0 12.25-7.56 24.16-10.76 36.41-9.8 1.4.11 2.62-.94 2.73-2.34.01-.06.01-.13.01-.2v-47.67c0-1.33-1.02-2.44-2.35-2.54Zm-36.14 6.84c.67-.58 1.21-1 1.8-1.4 1.4-.95 2.79-1.65 4.05-2.26 6.27-3.03 11.6-4.05 17.59-4.23h.83v40.07c-.19 0-.39 0-.58.01h-.02c-8.23.09-16.39 2.72-23.67 6.97zm-28.72-7.88c.25-.01.49-.01.74-.02 6.45.11 12.79 1.72 18.53 4.7 1.26.65 2.49 1.36 3.68 2.11.34.21 1.45.88 1.78 1.1v39.16c-7.3-4.25-15.9-6.88-24.13-6.98 0 0-.41-.01-.6-.01zm62.12 48.56c-11.94-.38-23.56 2.86-35.4 9.89-11.74-6.96-23.78-10.27-35.85-9.88v-42.65c.95-.04 4.2-.01 5.14 0v37.77s3.72-.02 3.99-.01c8.95.36 15.97 2.78 22.67 6.67l4.05 2.36 3.61-2.36c6.69-3.89 13.92-6.33 21.45-6.66 1.72-.07 5.23 0 5.23 0v-37.77c1.37-.01 4.37-.03 5.11 0z"/><path d="M261.97 290.46c-2.11 3.98-6.76 7.12-11.58 7.81l-2.61.37 1.02 2.43c5.22 12.37 2.48 25.47-6.92 33.68l-.65 21.14.79 3.13h-8.25l.78-2.97-.49-16.09c-2.95 1.23-6.14 1.88-9.5 1.88-.35 0-.7-.01-1.05-.02l-.72 14.03.75 3.17h-7.99c.33-.84.64-1.82.59-2.91l-.81-15.77c-3.92-1.26-7.72-3.28-11.07-5.94l-1.84-1.45-1.18 2.02c-2.57 4.43-6.21 7.75-10.81 9.89l4.25 11.16.66 2-6.87.04.86-3.18-.66-.81c-1.75-2.12-3.7-4.8-5.14-7.11-1.58.32-3.21.52-4.97.52-.2 0-.69-.01-.69-.01-1.75 0-4.34-.73-6.73-1.9l-.39 9.58.68 2.32h-6.32l.56-1.61s-.76-18.7-.82-20.23c-.01-.33.04-.65.16-.96l5.06-12.82c-.89.08-1.85.14-2.25.2l-.44.06-.02.02c-.4.02-.77.05-1.15.05-2.72 0-5.02-1.1-6.4-2.99 1.37-.28 2.81-.97 4.37-2.08.08-.06.23-.18.46-.36 7.21-5.64 16.15-10.71 25.88-14.65 7.84-3.18 14.97-5.97 22.36-7.79-.04 3.91-2.62 7.52-6.36 8.68-9.75 3.03-16.49 6.74-26.71 12.96l-2.33 5.37-5.97 15.1-.05 1.23c2.06 1.82 4 2.97 6.79 3.13.17 0 .3.01.42.01 2.96 0 6.4-1.08 8.73-1.89 3.59-1.47 8.84-6.23 9.64-11.28l7.38-2.46c4.78 6.03 12.76 10.03 20.1 10.03 1.35 0 2.67-.13 3.93-.41 9.35-2.44 16.65-12 16.32-21.31-.05-4.97-1.93-10.55-5.05-15.05l4.85-6.67c1.28.41 2.6.62 3.85.62 2.91 0 5.46-1.08 7.39-3.11.54-.54 1.7-2.07 1.67-3.2v-.16c-.09-.65-.45-1.88-.83-2.68-5.53-11.35-19.49-23.59-32.41-23.59-3.79 0-7.34 1.01-10.53 2.99-4.9 2.8-6.57 9.02-6.5 13.49.12 5.32 4.36 9.84 10.08 10.76.42.06.85.1 1.29.1 2.52 0 4.66-1.13 5.59-2.18 1.17-1.32 1.81-3.96.86-6.09l-.19-.41-.74-1.65-1.73.56c-.55.18-1.08.27-1.58.27-2.26 0-3.64-1.82-3.96-3.51-.15-.76-.4-3.35 2.59-4.62.94-.25 1.86-.38 2.73-.38 4.6 0 7.52 3.53 8.72 6.82 1.49 4.08 1.16 9.74-2.93 13.18-2.48 2.25-5.6 3.43-9.06 3.43-4.44 0-9.18-1.93-12.67-5.16-7.59-6.97-6.46-19.43-.65-26.69 4.38-5.16 10.6-7 15.04-7.62.99-.12 2.04-.18 3.09-.18 16.32 0 31.94 14.65 38.36 28.44 1.92 3.91 1.01 7.2-.08 9.28" fill="#c4bfdb"/><path class="st0" d="M82.72 241.93v36.13c0 3.73.18 7.42.54 11.08.1 1.04.22 2.08.35 3.12.2 1.55.42 3.1.68 4.64.31 1.86.67 3.71 1.07 5.55.2.91.41 1.83.64 2.74.22.91.45 1.82.7 2.73.24.91.5 1.81.76 2.71.27.89.55 1.79.83 2.69.29.89.59 1.78.89 2.66 17.53 50.5 68.4 89.97 125.03 105.56l.02.01c.87-.24 1.75-.49 2.62-.75.88-.25 1.77-.51 2.65-.78 6.12-1.86 12.17-4 18.1-6.4 1.48-.6 2.95-1.21 4.41-1.85 0 .01 0 0 0 0 13.94-6.01 27.17-13.47 39.22-22.17 1.27-.91 2.53-1.84 3.77-2.79.62-.47 1.24-.94 1.85-1.42 1.41-1.09 2.79-2.2 4.16-3.33h.01c2.74-2.25 5.39-4.56 7.96-6.96h.01c2.58-2.38 5.07-4.83 7.47-7.34 1.61-1.69 3.17-3.38 4.69-5.11.47-.54.95-1.09 1.42-1.63.94-1.09 1.86-2.2 2.77-3.31s1.79-2.24 2.66-3.38q.66-.855 1.29-1.71c.43-.58.85-1.15 1.27-1.73.42-.57.83-1.15 1.24-1.74.41-.58.81-1.16 1.21-1.75.21-.29.41-.59.6-.88.2-.29.39-.59.59-.89.39-.59.77-1.18 1.15-1.78.38-.59.76-1.19 1.13-1.79.53-.87 1.06-1.73 1.57-2.61.11-.17.21-.34.31-.52.52-.9 1.04-1.81 1.54-2.72.28-.51.56-1.02.83-1.53s.55-1.03.81-1.54c.26-.49.51-.98.77-1.48.61-1.23 1.21-2.46 1.79-3.71.43-.94.86-1.89 1.28-2.84.21-.47.41-.95.61-1.43.61-1.43 1.18-2.87 1.73-4.33.19-.48.37-.96.54-1.45.53-1.46 1.04-2.93 1.51-4.4.32-.99.62-1.98.91-2.97.15-.5.29-.99.43-1.49.42-1.5.81-3 1.16-4.51 2.03-8.57 3.11-17.41 3.11-26.47v-36.13c-85.01-28.11-177.66-28.11-262.67 0ZM233.8 359.02l.78-2.97-.49-16.09c-2.95 1.23-6.14 1.88-9.5 1.88-.35 0-.7-.01-1.05-.02l-.72 14.03.75 3.17h-7.99c.33-.84.64-1.82.59-2.91l-.81-15.77c-3.92-1.26-7.72-3.28-11.07-5.94l-1.84-1.45-1.18 2.02c-2.57 4.43-6.21 7.75-10.81 9.89l4.25 11.16.66 2-6.87.04.86-3.18-.66-.81c-1.75-2.12-3.7-4.8-5.14-7.11-1.58.32-3.21.52-4.97.52-.2 0-.69-.01-.69-.01-1.75 0-4.34-.73-6.73-1.9l-.39 9.58.68 2.32h-6.32l.56-1.61s-.76-18.7-.82-20.23c-.01-.33.04-.65.16-.96l5.06-12.82c-.89.08-1.85.14-2.25.2l-.44.06-.02.02c-.4.02-.77.05-1.15.05-2.72 0-5.02-1.1-6.4-2.99 1.37-.28 2.81-.97 4.37-2.08.08-.06.23-.18.46-.36 7.21-5.64 16.15-10.71 25.88-14.65 7.84-3.18 14.97-5.97 22.36-7.79-.04 3.91-2.62 7.52-6.36 8.68-9.75 3.03-16.49 6.74-26.71 12.96l-2.33 5.37-5.97 15.1-.05 1.23c2.06 1.82 4 2.97 6.79 3.13.17 0 .3.01.42.01 2.96 0 6.4-1.08 8.73-1.89 3.59-1.47 8.84-6.23 9.64-11.28l7.38-2.46c4.78 6.03 12.76 10.03 20.1 10.03 1.35 0 2.67-.13 3.93-.41 9.35-2.44 16.65-12 16.32-21.31-.05-4.97-1.93-10.55-5.05-15.05l4.85-6.67c1.28.41 2.6.62 3.85.62 2.91 0 5.46-1.08 7.39-3.11.54-.54 1.7-2.07 1.67-3.2v-.16c-.09-.65-.45-1.88-.83-2.68-5.53-11.35-19.49-23.59-32.41-23.59-3.79 0-7.34 1.01-10.53 2.99-4.9 2.8-6.57 9.02-6.5 13.49.12 5.32 4.36 9.84 10.08 10.76.42.06.85.1 1.29.1 2.52 0 4.66-1.13 5.59-2.18 1.17-1.32 1.81-3.96.86-6.09l-.19-.41-.74-1.65-1.73.56c-.55.18-1.08.27-1.58.27-2.26 0-3.64-1.82-3.96-3.51-.15-.76-.4-3.35 2.59-4.62.94-.25 1.86-.38 2.73-.38 4.6 0 7.52 3.53 8.72 6.82 1.49 4.08 1.16 9.74-2.93 13.18-2.48 2.25-5.6 3.43-9.06 3.43-4.44 0-9.18-1.93-12.67-5.16-7.59-6.97-6.46-19.43-.65-26.69 4.38-5.16 10.6-7 15.04-7.62.99-.12 2.04-.18 3.09-.18 16.32 0 31.94 14.65 38.36 28.44 1.92 3.91 1.01 7.2-.08 9.28-2.11 3.98-6.76 7.12-11.58 7.81l-2.61.37 1.02 2.43c5.22 12.37 2.48 25.47-6.92 33.68l-.65 21.14.79 3.13z"/><path class="st1" d="m115.94 169.72-3.67 3.02.33.39c6.36 7.71 16.13 12.91 26.13 13.9l.77.08.38 2.19-.95.2c-3.23.69-6.18 2.28-8.53 4.59l-.88.87h26.35l-.88-.87c-.93-.91-1.95-1.71-3.04-2.38-1.74-1.08-3.66-1.84-5.68-2.25l-.98-.2.41-2.15.75-.08c14.46-1.46 27.53-11.31 32.52-24.52 6.12-15.22 1.66-33.7-10.84-44.93l-.4-.35-4.53 5.47 1.16.85-4.35 5.3-.78-.63c-3.2-2.57-6.98-4.39-10.99-5.27-.1-.03-.19-.05-.29-.07l-.11-.02c-1.76-.37-3.58-.55-5.41-.55-14.85 0-26.93 12.08-26.93 26.93 0 6.1 2 11.85 5.78 16.63l.61.77-5.01 4.21zm31.78-33.94c-.69-1.79-1.11-3.86-1.19-5.84-.03-.94.26-1.76.5-2.29l.36-.77.82.22c10.05 2.64 17.08 11.74 17.08 22.13 0 3.69-.86 7.21-2.55 10.46l-.78 1.5-.96-1.4c-.25-.36-.48-.78-.72-1.22l-.16-.29c-.61-1.11-1.3-2.38-2.44-3.36-1.16-.99-2.66-1.53-4.24-1.53-1 0-1.99.23-2.88.67-.81.4-1.47.94-2.06 1.43-.58.46-1.05.84-1.55 1.09-.4.19-.87.29-1.36.29-1.14 0-2.26-.54-2.85-1.39-.89-1.28-.69-3.26.42-4.33.37-.36.85-.65 1.4-.99.48-.3 1.04-.65 1.56-1.09 1.81-1.52 2.89-3.94 2.98-6.65.08-2.58-.75-5.03-1.38-6.64m-19.07-4.81c4-3.02 8.76-4.62 13.77-4.62.15 0 .32.01.48.02l1.23.09-.33 1.19c-.22.79-.33 1.63-.3 2.42.09 2.31.58 4.73 1.39 6.8.85 2.19 1.22 3.93 1.16 5.46-.04 1.81-.75 3.45-1.87 4.4-.34.29-.74.55-1.23.84-.6.37-1.27.79-1.89 1.38-2.22 2.12-2.58 5.76-.81 8.27 1.16 1.66 3.2 2.7 5.33 2.7.95 0 1.89-.21 2.72-.62.8-.38 1.48-.94 2.07-1.42l.1-.08c.5-.4.97-.78 1.46-1.03.45-.22.96-.33 1.5-.33.85 0 1.68.28 2.29.8.7.61 1.18 1.49 1.72 2.5l.06.1c.41.75.87 1.59 1.48 2.33.19.24.4.46.61.67l.7.67-.64.73c-4.34 4.99-10.63 7.86-17.23 7.86s-13.16-2.99-17.52-8.19l-.68-.81.84-.65c1.81-1.39 2.89-3.51 2.88-5.66-.01-1.61-.56-3.06-1.04-4.34-.18-.47-.36-.95-.51-1.43-.45-1.47-.29-2.91.43-3.83.45-.61.93-.7 1.7-.86.57-.13 1.21-.26 1.89-.63 1.58-.85 2.73-2.45 3.17-4.38.46-2.1.02-4.33-1.18-5.96-.85-1.16-2.06-2.07-3.51-2.64l-1.68-.66zm-9.11 18.26c0-4.97 1.57-9.69 4.55-13.66l.26-.35.43-.05c.24-.03.49-.04.73-.04 1.81 0 3.52.78 4.45 2.04.68.92.93 2.26.65 3.48-.23 1.06-.83 1.92-1.66 2.38-.27.15-.63.23-1.07.33-1.03.21-2.31.48-3.45 1.94-1.34 1.73-1.69 4.21-.94 6.63.17.52.36 1.04.56 1.59.42 1.09.85 2.22.85 3.28.01 1.04-.48 2.14-1.32 2.93l-.99.94-.61-1.21c-1.6-3.14-2.44-6.68-2.44-10.23m4.76 19.92.78.65c4.84 4.1 11 6.35 17.34 6.35 14.84 0 26.92-12.08 26.92-26.92 0-6.42-2.3-12.63-6.49-17.5l-.67-.79 5.42-4.43.64.72c4.8 5.38 7.76 12.52 8.12 19.58.75 18.17-10.7 29.16-21.66 33.39-3.97 1.54-8.33 2.35-12.6 2.35-7.83 0-15.17-2.69-21.2-7.78l-.77-.66z"/><path class="st2" d="M130.62 140.79c-.23 1.06-.83 1.92-1.66 2.38-.27.15-.63.23-1.07.33-1.03.21-2.31.48-3.45 1.94-1.34 1.73-1.69 4.21-.94 6.63.17.52.36 1.04.56 1.59.42 1.09.85 2.22.85 3.28.01 1.04-.48 2.14-1.32 2.93l-.99.94-.61-1.21c-1.6-3.14-2.44-6.68-2.44-10.23 0-4.97 1.57-9.69 4.55-13.66l.26-.35.43-.05c.24-.03.49-.04.73-.04 1.81 0 3.52.78 4.45 2.04.68.92.93 2.26.65 3.48"/><path class="st2" d="m160.3 163.65-.64.73c-4.34 4.99-10.63 7.86-17.23 7.86s-13.16-2.99-17.52-8.19l-.68-.81.84-.65c1.81-1.39 2.89-3.51 2.88-5.66-.01-1.61-.56-3.06-1.04-4.34-.18-.47-.36-.95-.51-1.43-.45-1.47-.29-2.91.43-3.83.45-.61.93-.7 1.7-.86.57-.13 1.21-.26 1.89-.63 1.58-.85 2.73-2.45 3.17-4.38.46-2.1.02-4.33-1.18-5.96-.85-1.16-2.06-2.07-3.51-2.64l-1.68-.66 1.44-1.09c4-3.02 8.76-4.62 13.77-4.62.15 0 .32.01.48.02l1.23.09-.33 1.19c-.22.79-.33 1.63-.3 2.42.09 2.31.58 4.73 1.39 6.8.85 2.19 1.22 3.93 1.16 5.46-.04 1.81-.75 3.45-1.87 4.4-.34.29-.74.55-1.23.84-.6.37-1.27.79-1.89 1.38-2.22 2.12-2.58 5.76-.81 8.27 1.16 1.66 3.2 2.7 5.33 2.7.95 0 1.89-.21 2.72-.62.8-.38 1.48-.94 2.07-1.42l.1-.08c.5-.4.97-.78 1.46-1.03.45-.22.96-.33 1.5-.33.85 0 1.68.28 2.29.8.7.61 1.18 1.49 1.72 2.5l.06.1c.41.75.87 1.59 1.48 2.33.19.24.4.46.61.67z"/><path class="st2" d="M165.3 149.37c0 3.69-.86 7.21-2.55 10.46l-.78 1.5-.96-1.4c-.25-.36-.48-.78-.72-1.22l-.16-.29c-.61-1.11-1.3-2.38-2.44-3.36-1.16-.99-2.66-1.53-4.24-1.53-1 0-1.99.23-2.88.67-.81.4-1.47.94-2.06 1.43-.58.46-1.05.84-1.55 1.09-.4.19-.87.29-1.36.29-1.14 0-2.26-.54-2.85-1.39-.89-1.28-.69-3.26.42-4.33.37-.36.85-.65 1.4-.99.48-.3 1.04-.65 1.56-1.09 1.81-1.52 2.89-3.94 2.98-6.65.08-2.58-.75-5.03-1.38-6.64-.69-1.79-1.11-3.86-1.19-5.84-.03-.94.26-1.76.5-2.29l.36-.77.82.22c10.05 2.64 17.08 11.74 17.08 22.13"/><path class="st2" d="M154.71 180.34c-3.97 1.54-8.33 2.35-12.6 2.35-7.83 0-15.17-2.69-21.2-7.78l-.77-.66 4.17-4.96.78.65c4.84 4.1 11 6.35 17.34 6.35 14.84 0 26.92-12.08 26.92-26.92 0-6.42-2.3-12.63-6.49-17.5l-.67-.79 5.42-4.43.64.72c4.8 5.38 7.76 12.52 8.12 19.58.75 18.17-10.7 29.16-21.66 33.39"/><path class="st2" d="M208.41 78.97c-39.04 18.3-82.8 24.85-125.69 18.82v134.69c42.51-14.06 82.1-21.05 126.52-21.05V78.58zm-29.43 83.67c-4.99 13.21-18.06 23.06-32.52 24.52l-.75.08-.41 2.15.98.2c2.02.41 3.94 1.17 5.68 2.25 1.09.67 2.11 1.47 3.04 2.38l.88.87h-26.35l.88-.87c2.35-2.31 5.3-3.9 8.53-4.59l.95-.2-.38-2.19-.77-.08c-10-.99-19.77-6.19-26.13-13.9l-.33-.39 3.67-3.02.94 1.13 5.01-4.21-.61-.77c-3.78-4.78-5.78-10.53-5.78-16.63 0-14.85 12.08-26.93 26.93-26.93 1.83 0 3.65.18 5.41.55l.11.02c.1.02.19.04.29.07 4.01.88 7.79 2.7 10.99 5.27l.78.63 4.35-5.3-1.16-.85 4.53-5.47.4.35c12.5 11.23 16.96 29.71 10.84 44.93"/></svg>